inDegrees=no
num_controls=7
num_derivatives=13
num_iterations=159
num_multipliers=7
num_parameters=0
num_slacks=7
num_states=26
objective=5.620209
objective_accelerations=0.878110
objective_balance=0.020209
objective_effort=0.197475
objective_height=4.428421
objective_ligament=0.095994
solver_duration=1864.861246
status=Solve_Succeeded
success=true
DataType=double
version=3
OpenSimVersion=4.4-2022-07-23-0e9fedc
endheader
time	/jointset/ground_pelvis/pelvis_tilt/value	/jointset/ground_pelvis/pelvis_tx/value	/jointset/ground_pelvis/pelvis_ty/value	/jointset/hip_l/hip_flexion_l/value	/jointset/hip_l/hip_adduction_l/value	/jointset/hip_l/hip_rotation_l/value	/jointset/back/lumbar_extension/value	/jointset/patellofemoral_l/patellar_flexion_l/value	/jointset/knee_l/knee_flexion_l/value	/jointset/knee_l/knee_adduction_l/value	/jointset/knee_l/knee_rotation_l/value	/jointset/ankle_l/ankle_angle_l/value	/jointset/subtalar_l/subtalar_angle_l/value	/jointset/ground_pelvis/pelvis_tilt/speed	/jointset/ground_pelvis/pelvis_tx/speed	/jointset/ground_pelvis/pelvis_ty/speed	/jointset/hip_l/hip_flexion_l/speed	/jointset/hip_l/hip_adduction_l/speed	/jointset/hip_l/hip_rotation_l/speed	/jointset/back/lumbar_extension/speed	/jointset/patellofemoral_l/patellar_flexion_l/speed	/jointset/knee_l/knee_flexion_l/speed	/jointset/knee_l/knee_adduction_l/speed	/jointset/knee_l/knee_rotation_l/speed	/jointset/ankle_l/ankle_angle_l/speed	/jointset/subtalar_l/subtalar_angle_l/speed	/forceset/tau_hip_flexion_l	/forceset/tau_hip_adduction_l	/forceset/tau_hip_rotation_l	/forceset/tau_knee_flexion_l	/forceset/tau_ankle_angle_l	/forceset/tau_subtalar_angle_l	/forceset/tau_lumbar_extension	lambda_cid13_p0	lambda_cid13_p1	lambda_cid13_p2	lambda_cid13_p3	lambda_cid13_p4	lambda_cid13_p5	lambda_cid14_p0	/jointset/ground_pelvis/pelvis_tilt/accel	/jointset/ground_pelvis/pelvis_tx/accel	/jointset/ground_pelvis/pelvis_ty/accel	/jointset/hip_l/hip_flexion_l/accel	/jointset/hip_l/hip_adduction_l/accel	/jointset/hip_l/hip_rotation_l/accel	/jointset/back/lumbar_extension/accel	/jointset/patellofemoral_l/patellar_flexion_l/accel	/jointset/knee_l/knee_flexion_l/accel	/jointset/knee_l/knee_adduction_l/accel	/jointset/knee_l/knee_rotation_l/accel	/jointset/ankle_l/ankle_angle_l/accel	/jointset/subtalar_l/subtalar_angle_l/accel	gamma_cid13_p0	gamma_cid13_p1	gamma_cid13_p2	gamma_cid13_p3	gamma_cid13_p4	gamma_cid13_p5	gamma_cid14_p0
0.5	-0.2407801246554966	0.01907292568471321	0.7521408339748561	1.08281095141826	-0.356894530832996	0.006356498695426882	-0.404932306061242	1.029771174223023	1.029771174223404	-0.006569067220551697	-0.1745207764834108	0.3229696020309778	0.1764811687030423	-0.8102470760081572	-0.1832510157990358	-0.6113000748273653	2.638891468004061	0.0431078365703854	0.5597000720423195	-0.2969159273508927	2.184456426238688	2.184456426238639	0.3490496129988924	0.0003421116158485332	0.5334744107887681	0.2929286066861381	-0.1104227806328124	0.02005259852628773	-0.004166553798143179	-0.2109192399379302	0.01135458166969119	0.0239607989262847	0.1205126206747347	-19.68102949676925	-5.55771642487413	-0.9968966946036283	-3.137700602821773	-436.321199957796	-72.56042180394216	-2.806733094587491	0.4693335943888491	0.5334666136226135	-0.5493001661654493	-1.328542170169317	0.1140145779575396	-0.7211188549715876	1.533056355764511	-1.703528344952449	-1.703528344952473	-0.2204163383738943	0.02362657091655868	-0.993127793082638	0.0736538814587414	-2.27061789446736e-07	-2.759476567104617e-06	1.747767163521771e-06	-2.657438098455799e-07	-6.038736998196673e-07	-1.76790185150804e-06	-4.560250827307079e-07
0.51	-0.2488574278329311	0.01726756698398846	0.7460019502034779	1.109128515910986	-0.3564591738988509	0.01191447279496788	-0.407825589500087	1.051526664003218	1.051526664003468	-0.003090155925446167	-0.174519770777953	0.3282536221109761	0.1794116216865759	-0.8051189253153538	-0.1777765994056409	-0.6163273672345804	2.624242482973772	0.04393806060927218	0.5519914705364167	-0.2817338779020037	2.166317512567277	2.16631751256723	0.3465795883773003	-7.807752646068258e-05	0.5232705051662782	0.2930835310774162	-0.114787288612411	0.01837599529500092	-0.004265842411278758	-0.2156098508736349	0.01147558864674206	0.02543609664390985	0.1239655344073107	-19.73091926011957	-6.131249404806724	-0.9722268326615516	-3.665815876700563	-440.3586125025195	-74.64642384796836	-2.299295435721027	0.548717181769301	0.5609316586433718	-0.4571006030409844	-1.589950342240367	0.06406007643461026	-0.7815290195329185	1.511811616792451	-1.91761961878917	-1.917619618788927	-0.2838167092775695	-0.06564751414449289	-1.043074207292589	-0.02465294593858315	-8.277561045577014e-08	-3.954975287325282e-06	-6.947228854186916e-07	-5.803437455125288e-07	-2.427838508268322e-07	-2.320018428109256e-06	-2.592143824630177e-07
0.52	-0.2568806172284254	0.01551825294848697	0.7398172621430191	1.135288215818852	-0.3560162079723981	0.01739820123520169	-0.4105668459689741	1.073091055298582	1.073091055298716	0.0003593508864820191	-0.1745211281353074	0.3334337926826567	0.182341410981242	-0.7994243196208187	-0.1720420827543825	-0.6204609326434801	2.607318551032227	0.04462963503140428	0.544850940185163	-0.2665105333594669	2.146236729273716	2.14623672927367	0.3431687163466658	-0.0001305009623624989	0.5127045091253712	0.2927958689126527	-0.1191517965920404	0.01669939206357272	-0.004365131023321357	-0.2203004618093347	0.01159659562374979	0.02691139436130757	0.1274184481398703	-19.77326860283771	-6.720030077577659	-0.929219512674007	-4.228397576666844	-444.3475233927452	-76.78536648304909	-1.846716377206486	0.5826245947351955	0.585486665195371	-0.3705547665024002	-1.783531552420394	0.08628465460661647	-0.6075046240418952	1.541315374494017	-2.091902269382576	-2.091902269382645	-0.4085858201823825	0.09717971219781645	-1.06554587676596	-0.01486342974964753	-6.589754718035937e-08	-3.828877376428836e-06	-9.37512518428641e-07	-5.786671199901303e-07	-1.912602648768381e-07	-2.264000180086132e-06	-2.187921183983266e-07
0.53	-0.2648437764345467	0.01382727598813425	0.7335956779548179	1.161267710690802	-0.3555666220407147	0.02281150064491651	-0.4131557159744854	1.094445455566996	1.094445455567171	0.003772409774015573	-0.1745218223413539	0.338506546928972	0.1852666433331333	-0.7930915054600974	-0.1661406159517163	-0.6237099304231446	2.588238168558306	0.04528339190853763	0.5377415082682139	-0.2512567675946514	2.124358716275002	2.124358716274964	0.3394649237748852	-2.113698878522627e-05	0.5017785445253233	0.292196133743362	-0.1244096907975488	0.01793937212305345	-0.004648394921454001	-0.2233320802231618	0.009920610622345569	0.02661409485505352	0.131364623822645	-20.58635223665766	-6.286248194037724	-1.183760768036669	-3.932568415310377	-448.3282001087688	-76.52681376735461	-1.447149046005147	0.6759824680629757	0.5942651352186803	-0.2802089371419978	-2.021655794388352	0.05469886633520973	-0.7730165494529215	1.518412199636119	-2.27840252317007	-2.278402523168766	-0.3485154825761679	-0.0344393212606391	-1.11646760619607	-0.08997614792520812	-6.08446833039274e-08	-3.628593879265636e-06	-9.303268024494973e-07	-5.569921136870928e-07	-1.72422922112107e-07	-2.166359608017346e-06	-2.030331947658326e-07
0.54	-0.2727401329707911	0.01219567138529155	0.7273459764581314	1.187046128898111	-0.3551105430078457	0.02815163492067295	-0.4155918473179156	1.115572545363813	1.115572545364028	0.007148982834459376	-0.1745218737198882	0.3434679723583725	0.1881843888158503	-0.7860637856464945	-0.1601676112523779	-0.6260843943405586	2.567103218103964	0.0459282552684137	0.5302179133940029	-0.2359628009434097	2.100774634954119	2.100774634954091	0.3358715509270956	-1.935463141150106e-06	0.4904387457424027	0.2912984950778146	-0.1296675850030793	0.01917935218252022	-0.004931658819529353	-0.2263636986369886	0.008244625620939678	0.02631679534877637	0.1353107995054007	-21.39950518375883	-5.857530066454597	-1.431698200482056	-3.644588603693101	-452.274717099013	-76.29492827949441	-1.098988781317311	0.7216057253114719	0.5997942445298323	-0.1956479940523112	-2.194445148504792	0.08450595115514148	-0.6903372154943004	1.549355551779234	-2.433115933816295	-2.433115933816239	-0.3865018753841941	0.07914722261108914	-1.148312713340479	-0.07444412900100372	-6.887501876253593e-08	-3.346232712190281e-06	-6.465726152483753e-07	-5.13191239286327e-07	-1.897490824459651e-07	-2.02266880508953e-06	-2.145613711859825e-07
0.55	-0.2805629978687967	0.01062413373853006	0.7210769242349444	1.212603185693384	-0.3546482224446894	0.03341575847760444	-0.4178749375925377	1.136455414347628	1.136455414347763	0.0104889423960579	-0.1745216477442663	0.3483140380198286	0.1910913916859739	-0.7784066575850309	-0.1541286805727047	-0.6275751836176252	2.543969632689108	0.04652549978644655	0.5225694574985132	-0.2206729152016235	2.075521163852366	2.075521163852352	0.332101861471939	4.138010129205646e-05	0.4787197497916448	0.2900394520977942	-0.13462813567516	0.01935415585998146	-0.005253975360557763	-0.229900866503438	0.00690121095613166	0.02654050605126062	0.1390137567658058	-22.05651971826004	-5.732902624935583	-1.573496840818435	-3.50111040976937	-456.3112769588348	-76.80316444395213	-0.8010041109523499	0.8031178504441195	0.6075302488212682	-0.1032042326099308	-2.423618447454649	0.04604379201250825	-0.8079595825778346	1.516155902222515	-2.613118221922471	-2.613118221920378	-0.375413710683745	-0.03415042431907812	-1.192041182912847	-0.1604645853497698	-6.909177900306308e-08	-3.091917649511255e-06	-5.01113663981484e-07	-4.785137528849528e-07	-1.895356684354816e-07	-1.899324000370865e-06	-2.102819935873152e-07
0.5600000000000001	-0.2883062211854066	0.009113302952392434	0.7147974821513715	1.237918745992618	-0.3541801874183749	0.03860222551438049	-0.4200056588463714	1.157077417515713	1.157077417515762	0.01379056281706651	-0.1745212034425342	0.3530412440923835	0.1939840380857279	-0.7701354693683675	-0.1480262391276085	-0.6281623664177396	2.518803918895103	0.04707114789988432	0.5146866093629633	-0.2054889967860749	2.048601471807905	2.048601471807906	0.3282037228126928	4.172975858463106e-05	0.4666668279621119	0.2884272010038865	-0.1395886863472182	0.01952895953744761	-0.005576291901721308	-0.2334380343698904	0.005557796291322695	0.02676421675375289	0.1427167140262346	-22.7124667659216	-5.616650217161843	-1.704608617637991	-3.372611015358796	-460.333122157107	-77.35293651207404	-0.5522871536605384	0.844417756351371	0.6124963976144437	-0.01492669866188847	-2.600870824334571	0.07418667023609229	-0.7372156635064089	1.5281620865317	-2.766360122357914	-2.766360122357841	-0.4121917162021013	0.07055404118288208	-1.215097889095481	-0.1450857517784774	-5.993224898189288e-08	-2.871257912107825e-06	-5.216089958356642e-07	-4.547843320828482e-07	-1.682747652117885e-07	-1.800394393503178e-06	-1.870335511660676e-07
